#!OML:ASF F:\VICON\USERDATA\INSTALL\rory3\rory3.ASF
:FULLY-SPECIFIED
:DEGREES
305
root 11.3405 18.0352 12.4977 -8.55435 -71.7484 14.0852
lowerback 11.2682 -0.560367 -4.43758
upperback 0.409032 -1.30547 0.53658
thorax -5.78752 -0.523586 3.27852
lowerneck -20.232 -8.69764 -13.5012
upperneck 28.7036 -12.2489 11.4346
head 15.0036 -5.40799 4.56588
rclavicle 4.17448e-015 2.22639e-014
rhumerus -31.0566 -11.4166 -81.3171
rradius 36.8156
rwrist 2.83099
rhand -15.5475 9.20835
rfingers 7.12502
rthumb 10.6366 -20.5024
lclavicle 4.17448e-015 2.22639e-014
lhumerus -35.846 6.88591 76.7127
lradius 31.8443
lwrist -3.68996
lhand -20.1219 28.001
lfingers 7.12502
lthumb 6.22217 57.8897
rfemur -29.8127 -12.4524 18.5944
rtibia 29.0048
rfoot -3.66933 -10.921
rtoes 17.8677
lfemur 15.1486 8.69869 -22.051
ltibia 6.36111e-015
lfoot 1.40018 22.8257
ltoes -18.9695
306
root 11.2406 18.0314 12.4887 -8.83195 -72.1816 14.3461
lowerback 11.3419 -0.63403 -4.49219
upperback 0.426912 -1.4101 0.602634
thorax -5.79784 -0.572863 3.39712
lowerneck -20.4017 -8.60628 -13.5234
upperneck 28.7241 -12.0394 11.3263
head 15.0067 -5.32804 4.56606
rclavicle 5.45664e-014 3.97569e-015
rhumerus -31.1054 -11.7337 -81.1926
rradius 36.4669
rwrist 3.02983
rhand -15.3755 9.32447
rfingers 7.12502
rthumb 10.8025 -20.3777
lclavicle 5.45664e-014 3.97569e-015
lhumerus -35.8877 6.975 76.8702
lradius 32.1566
lwrist -2.63571
lhand -20.615 28.1803
lfingers 7.12502
lthumb 5.7461 58.0824
rfemur -29.5741 -12.1115 18.6791
rtibia 29.2069
rfoot -4.17565 -10.7762
rtoes 17.9798
lfemur 15.531 8.54743 -21.9189
ltibia 0
lfoot 2.53776 22.6727
ltoes -21.2381
307
root 11.1399 18.0236 12.4808 -9.19795 -72.6604 14.6509
lowerback 11.4609 -0.66179 -4.46502
upperback 0.449025 -1.45175 0.568561
thorax -5.83894 -0.594124 3.35515
lowerneck -20.5974 -8.50051 -13.3376
upperneck 28.7854 -11.8942 11.2274
head 15.0295 -5.25179 4.52192
rclavicle -2.73329e-014 1.07344e-014
rhumerus -31.2477 -12.1855 -81.128
rradius 36.1917
rwrist 3.29884
rhand -15.3036 9.54088
rfingers 7.12502
rthumb 10.8719 -20.1577
lclavicle -2.73329e-014 1.07344e-014
lhumerus -35.8763 7.15963 76.8193
lradius 32.3789
lwrist -2.03385
lhand -20.4618 27.8738
lfingers 7.12502
lthumb 5.894 57.7719
rfemur -29.2888 -11.7694 18.7543
rtibia 29.3631
rfoot -4.55483 -10.6654
rtoes 17.6445
lfemur 15.9753 8.44344 -21.7855
ltibia -9.54166e-015
lfoot 3.37561 22.6749
ltoes -21.9243
308
root 11.0343 18.0274 12.4703 -9.59838 -73.1506 15.0161
lowerback 11.5284 -0.640997 -4.45076
upperback 0.47013 -1.42839 0.527484
thorax -5.85795 -0.583771 3.30147
lowerneck -20.8157 -8.42267 -13.0995
upperneck 28.8524 -11.7782 11.0486
head 15.0539 -5.19059 4.42788
rclavicle -2.10712e-014 1.55052e-014
rhumerus -31.4611 -12.7805 -81.0725
rradius 36.0083
rwrist 3.5028
rhand -15.2417 9.58162
rfingers 7.12502
rthumb 10.9316 -20.1138
lclavicle -2.10712e-014 1.55052e-014
lhumerus -35.7315 7.05153 76.8733
lradius 32.442
lwrist -1.33744
lhand -20.3676 27.5213
lfingers 7.12502
lthumb 5.98493 57.4168
rfemur -28.966 -11.5142 18.8483
rtibia 29.3842
rfoot -4.87819 -10.489
rtoes 17.7236
lfemur 16.3596 8.35282 -21.6695
ltibia 5.40694e-014
lfoot 3.91504 22.9355
ltoes -21.1983
309
root 10.9296 18.0372 12.4549 -9.81392 -73.5393 15.3272
lowerback 11.5101 -0.650898 -4.50157
upperback 0.439456 -1.44433 0.579594
thorax -5.87629 -0.588255 3.3878
lowerneck -20.9213 -8.3762 -13.1756
upperneck 28.7813 -11.6415 11.0263
head 15.0264 -5.13841 4.45645
rclavicle 1.73937e-014 1.63003e-014
rhumerus -31.6393 -13.0254 -80.9688
rradius 35.8203
rwrist 3.43903
rhand -15.3796 9.547
rfingers 7.12502
rthumb 10.7986 -20.1554
lclavicle 1.73937e-014 1.63003e-014
lhumerus -35.5973 6.68172 77.1639
lradius 32.5478
lwrist -0.340345
lhand -20.3993 27.543
lfingers 7.12502
lthumb 5.95433 57.4394
rfemur -28.7369 -11.3257 18.9786
rtibia 29.3227
rfoot -5.13955 -10.2417
rtoes 18.0053
lfemur 16.5661 8.15862 -21.5876
ltibia -2.22639e-014
lfoot 4.699 23.1766
ltoes -21.0179
310
root 10.821 18.0521 12.4415 -9.24885 -73.9836 14.7773
lowerback 11.5169 -0.69643 -4.31362
upperback 0.406494 -1.47288 0.702989
thorax -5.91356 -0.603897 3.41714
lowerneck -20.9282 -8.29933 -13.3451
upperneck 28.6704 -11.4829 11.1357
head 14.9741 -5.07518 4.56281
rclavicle -2.83268e-014 -1.23246e-014
rhumerus -31.772 -12.9215 -80.8909
rradius 35.5302
rwrist 3.29387
rhand -15.4274 9.55837
rfingers 7.12502
rthumb 10.7525 -20.1464
lclavicle -2.83268e-014 -1.23246e-014
lhumerus -35.4735 6.53547 77.3494
lradius 32.5702
lwrist 0.353108
lhand -20.1699 27.4454
lfingers 7.12502
lthumb 6.17584 57.3354
rfemur -28.4271 -11.1639 19.4227
rtibia 29.2434
rfoot -5.31126 -9.96242
rtoes 17.6993
lfemur 16.8391 7.97757 -21.2377
ltibia 2.22639e-014
lfoot 5.57202 23.4005
ltoes -21.1077
